<svg data-bpl="true" aria-hidden="true" width="16" height="16" viewBox="0 0 16 16" class="trustpilot-icon css-w863cj-Icon" xmlns="http://www.w3.org/2000/svg" xmlns:xlink="http://www.w3.org/1999/xlink"><path d="m10 6.134 5.28-4.363L14.643 1l-4.627 3.823-3.974-3.46L.595 5.282l.584.812 4.804-3.457L10 6.134Z"></path><path fill-rule="evenodd" clip-rule="evenodd" d="M.5 9.424v5h3v-5h-3Zm1 1h1v3h-1v-3ZM4.5 6.424v8h3v-8h-3Zm2 7h-1v-6h1v6ZM8.5 8.424v6h3v-6h-3Zm1 1h1v4h-1v-4ZM12.5 6.424v8h3v-8h-3Zm2 7h-1v-6h1v6Z"></path></svg>