<svg data-bpl="true" aria-hidden="true" width="16" height="16" viewBox="0 0 16 16" class="trustpilot-icon css-w863cj-Icon" xmlns="http://www.w3.org/2000/svg" xmlns:xlink="http://www.w3.org/1999/xlink"><g clip-path="url(#a)"><path fill-rule="evenodd" clip-rule="evenodd" d="M15.854 6.798 14.65 8a1.5 1.5 0 0 1-.68 2.475 1.5 1.5 0 0 1-1.816 1.79 1.501 1.501 0 0 1-1.668 1.06 1.5 1.5 0 0 1-2.46.775 1.5 1.5 0 0 1-2.466-.769 1.5 1.5 0 0 1-1.673-1.077 1.499 1.499 0 0 1-1.79-1.785 1.5 1.5 0 0 1-.692-2.468l-1.26-1.26a.5.5 0 0 1 0-.707L4.152 2.03a.5.5 0 0 1 .685-.02l.38.337c.193.17.514.172.747-.048.381-.36.763-.63 1.25-.656.423-.023.84.144 1.285.361.459-.334.902-.503 1.47-.503h1.084a.5.5 0 0 1 .354.146l4.447 4.444a.5.5 0 0 1 0 .708Zm-7.5-3.33c.8-.803 1.14-.968 1.614-.968h.671a.5.5 0 0 1 .354.146l3.8 3.798-.85.849-2.67-2.672c-.36-.36-.8-.618-1.313-.619-.513 0-.98.255-1.396.67l-.206.203a.5.5 0 0 1-.707-.706l.703-.702Zm.332 9.88a.5.5 0 0 0 .707-.707l-.42-.42.708-.707.7.7a.5.5 0 0 0 .708-.703l-1.202-1.203.707-.707 1.206 1.207.004.004.007.007.342.342a.501.501 0 0 0 .708-.707l-1.711-1.71.707-.708.002.002.001-.001 1.354 1.355a.5.5 0 0 0 .707-.707l-3.354-3.356c-.25-.25-.452-.326-.609-.327-.156 0-.385.075-.688.378l-.003.003-.209.207-.006.005A1.5 1.5 0 0 1 6.94 3.466l.707-.706.03-.029c-.192-.074-.312-.096-.406-.09-.12.006-.28.063-.619.383-.562.532-1.47.626-2.097.07l-.028-.025-3.319 3.32.905.905.016-.015a1.5 1.5 0 0 1 2.587.972 1.5 1.5 0 0 1 1.391 1.435 1.5 1.5 0 0 1 1.395 1.473 1.5 1.5 0 0 1 1.185 2.19Zm-1.66-1.07-.38.38a.5.5 0 0 0 .72.692l.345-.345a.5.5 0 0 0-.685-.728Zm-.658-.757-.033.034a1.301 1.301 0 0 0-.039.037l-.348.348-.006.006a1.598 1.598 0 0 0-.02.021l-.249.25a.5.5 0 0 1-.706-.708l.695-.695a.5.5 0 0 1 .706.707ZM3.576 8.658l-.03.029-.716.716a.5.5 0 0 1-.691-.72l.68-.681.021-.022a.5.5 0 1 1 .736.678Zm-.057 1.47-.32.321a.5.5 0 0 0 .706.707L4.961 10.1a.5.5 0 1 0-.712-.702l-.7.702-.01.008a1.844 1.844 0 0 1-.02.02Z"></path></g><defs><clipPath id="a"><path d="M0 0h16v16H0z"></path></clipPath></defs></svg>