<svg viewBox="0 0 137 175" xmlns="http://www.w3.org/2000/svg" style="height: 141px;"><g fill="none" fill-rule="evenodd" transform="translate(-9)"><path d="m63.744 92.053 38.488 14.42-38.488 14.129z" fill="#eff6fc" opacity=".708"></path><path d="m63.744 92.123-38.489 13.968 38.489 14.582z" fill="#f3f8fc"></path><g stroke="#368cd7"><path d="m64.206 120.569 38.877-14.124-38.877-14.526-39.507 14.392 38.875 14.069z" stroke-linecap="round" stroke-linejoin="round"></path><path d="m64.175 91.902 15.608-9.153 39.597 14.738-16.469 8.922 10.846 17.903-39.596 14.279-9.986-18.193-.551.65-13.683 16.161-39.48-14.624 14.29-16.348-14.634-15.775 39.135-13.585z" stroke-linecap="round" stroke-linejoin="round"></path><path d="m23.269 127.462v18.402l40.512 13.973 39.18-14.085.232-17.382" stroke-linecap="round" stroke-linejoin="round"></path><path d="m64.2426901 120.885965-.505848 39.961988m0-68.7953214.3877838 28.1623684" stroke-linecap="round" stroke-linejoin="round"></path></g><g transform="translate(85.96 .058)"><path d="m9.078 22.365 43.842-18.723-36.905 20.732 1.911 14.655z" fill="#f3f8fc"></path><path d="m15.482 24.417 14.845 4.837-11.546 10.758z" fill="#dbeaf8"></path><g stroke="#368cd7" stroke-linecap="round" stroke-linejoin="round"><path d="m15.499 24.364 21.42 6.987 21.759-30.351z"></path><path d="m58.714.915-58.714 18.346 9.464 2.985z"></path><path d="m30.351 29.359-14.914-4.966 3.141 16.063-9.473-18.21 9.473 18.21z"></path></g></g><path d="m9.105 153.29 56.203 20.71 57.107-24.214-18.82-3.524-39.842 14.327-40.983-14.094z" fill="#dcebf9" stroke="#dcebf9" stroke-linecap="round" stroke-linejoin="round" stroke-width=".5"></path><path d="m97.5483398 45.8525391c-1.242513 1.5084635-3.6601277 2.8909505-7.252844 4.1474609l-11.5536993 5.4568905s-42.2710448 15.6070801-18.4765741 44.5847575c10.9539763 13.344099 7.4243617 15.952493 7.4243617 15.952493" stroke="#83b8e8" stroke-dasharray="3.5 6" stroke-linecap="round" stroke-linejoin="round" stroke-width="1.5"></path></g></svg>