<svg data-bpl="true" aria-hidden="true" width="16" height="16" viewBox="0 0 16 16" class="trustpilot-icon css-w863cj-Icon" xmlns="http://www.w3.org/2000/svg" xmlns:xlink="http://www.w3.org/1999/xlink"><g fill-rule="evenodd" clip-rule="evenodd" clip-path="url(#a)"><path d="M4.3 13.5 8 10.645l3.7 2.855-1.42-4.593L14 6.052H9.4L8 1.5 6.6 6.052H2l3.72 2.855L4.3 13.5ZM8 9.382 6.187 10.78l.694-2.243-1.936-1.485H7.34L8 4.902l.661 2.15h2.394L9.119 8.537l.694 2.243L8 9.382Z"></path><path d="M16 8A8 8 0 1 1 0 8a8 8 0 0 1 16 0Zm-1 0A7 7 0 1 1 1 8a7 7 0 0 1 14 0Z"></path></g><defs><clipPath id="a"><path d="M0 0h16v16H0z"></path></clipPath></defs></svg>