<svg class="max-sm:w-[29px] max-sm:h-[20px]" width="35" height="24" viewBox="0 0 41 28" fill="none" xmlns="http://www.w3.org/2000/svg"><title id="amex">American Express</title><g clip-path="url(#clip0_11409_62319)"><rect width="41" height="28" rx="2" fill="#016FD0"></rect><path fill-rule="evenodd" clip-rule="evenodd" d="M7.95312 21.7947V15.3906H14.7699L15.5012 16.339L16.2568 15.3906H40.9999V21.353C40.9999 21.353 40.3528 21.7883 39.6045 21.7947H25.9037L25.0791 20.7852V21.7947H22.377V20.0714C22.377 20.0714 22.0079 20.312 21.2099 20.312H20.2902V21.7947H16.199L15.4686 20.826L14.7271 21.7947H7.95312Z" fill="white"></path><path fill-rule="evenodd" clip-rule="evenodd" d="M0 10.5648L1.5372 7H4.19564L5.06802 8.99687V7H8.3727L8.89203 8.44328L9.3955 7H24.2301V7.72558C24.2301 7.72558 25.0099 7 26.2915 7L31.1048 7.01673L31.9621 8.98747V7H34.7277L35.4888 8.13203V7H38.2797V13.4041H35.4888L34.7594 12.2684V13.4041H30.6962L30.2876 12.3946H29.1953L28.7933 13.4041H26.0378C24.935 13.4041 24.2301 12.6933 24.2301 12.6933V13.4041H20.0754L19.2509 12.3946V13.4041H3.80181L3.39348 12.3946H2.30465L1.8992 13.4041H0L0 10.5648Z" fill="white"></path><path fill-rule="evenodd" clip-rule="evenodd" d="M0.0078125 12.5842L2.08117 7.78906H3.65303L5.7244 12.5842H4.34481L3.96423 11.624H1.74023L1.35767 12.5842H0.0078125ZM3.52413 10.5821L2.84638 8.90463L2.16666 10.5821H3.52413Z" fill="#016FD0"></path><path fill-rule="evenodd" clip-rule="evenodd" d="M5.86719 12.5842V7.78906L7.78541 7.79615L8.90112 10.8878L9.99011 7.78906H11.893V12.5842H10.6878V9.05095L9.41034 12.5842H8.35341L7.07235 9.05095V12.5842H5.86719Z" fill="#016FD0"></path><path fill-rule="evenodd" clip-rule="evenodd" d="M12.7188 12.5842V7.78906H16.6514V8.86167H13.9366V9.68189H16.588V10.6914H13.9366V11.5432H16.6514V12.5842H12.7188Z" fill="#016FD0"></path><path fill-rule="evenodd" clip-rule="evenodd" d="M17.3516 12.5842V7.78906H20.0334C20.9221 7.78906 21.7183 8.33566 21.7183 9.34473C21.7183 10.2073 21.047 10.763 20.3962 10.8176L21.9819 12.5842H20.5092L19.0642 10.8807H18.5567V12.5842H17.3516ZM19.9381 8.86061H18.5608V9.86987H19.956C20.1974 9.86987 20.5088 9.68373 20.5088 9.36524C20.5088 9.11768 20.2685 8.86061 19.9381 8.86061Z" fill="#016FD0"></path><path fill-rule="evenodd" clip-rule="evenodd" d="M23.4415 12.5842H22.2109V7.78906H23.4415V12.5842Z" fill="#016FD0"></path><path fill-rule="evenodd" clip-rule="evenodd" d="M26.3545 12.5842H26.0889C24.8037 12.5842 24.0234 11.5771 24.0234 10.2064C24.0234 8.80177 24.795 7.78906 26.4179 7.78906H27.7499V8.92476H26.3692C25.7104 8.92476 25.2445 9.43618 25.2445 10.2182C25.2445 11.1468 25.7772 11.5369 26.5448 11.5369H26.8619L26.3545 12.5842Z" fill="#016FD0"></path><path fill-rule="evenodd" clip-rule="evenodd" d="M26.8984 12.5842L28.9718 7.78906H30.5437L32.615 12.5842H31.2354L30.8549 11.624H28.6309L28.2483 12.5842H26.8984ZM30.4146 10.5831L29.7369 8.90554L29.0572 10.5831H30.4146Z" fill="#016FD0"></path><path fill-rule="evenodd" clip-rule="evenodd" d="M32.7578 12.5842V7.78906H34.29L36.2464 10.8018V7.78906H37.4516V12.5842H35.9689L33.963 9.49261V12.5842H32.7578Z" fill="#016FD0"></path><path fill-rule="evenodd" clip-rule="evenodd" d="M8.78125 20.9749V16.1797H12.7139V17.2523H9.9991V18.0725H12.6505V19.082H9.9991V19.9338H12.7139V20.9749H8.78125Z" fill="#016FD0"></path><path fill-rule="evenodd" clip-rule="evenodd" d="M28.0547 20.9749V16.1797H31.9873V17.2523H29.2725V18.0725H31.9112V19.082H29.2725V19.9338H31.9873V20.9749H28.0547Z" fill="#016FD0"></path><path fill-rule="evenodd" clip-rule="evenodd" d="M12.8659 20.9749L14.7807 18.6068L12.8203 16.1797H14.3387L15.5062 17.6801L16.6776 16.1797H18.1365L16.2019 18.5773L18.1202 20.9749H16.6021L15.4685 19.498L14.3624 20.9749H12.8659Z" fill="#016FD0"></path><path fill-rule="evenodd" clip-rule="evenodd" d="M18.2734 20.9788V16.1836H20.9355C22.0278 16.1836 22.6659 16.8839 22.6659 17.7964C22.6659 18.898 21.8523 19.4645 20.7789 19.4645H19.5103V20.9788H18.2734ZM20.8496 17.2669H19.514V18.3707H20.8457C21.1976 18.3707 21.4441 18.1388 21.4441 17.8188C21.4441 17.4782 21.1963 17.2669 20.8496 17.2669Z" fill="#016FD0"></path><path fill-rule="evenodd" clip-rule="evenodd" d="M23.1875 20.9788V16.1836H25.8694C26.758 16.1836 27.5542 16.7302 27.5542 17.7393C27.5542 18.6019 26.8829 19.1575 26.2321 19.2121L27.8179 20.9788H26.3451L24.9001 19.2752H24.3927V20.9788H23.1875ZM25.7741 17.2551H24.3968V18.2644H25.7919C26.0334 18.2644 26.3448 18.0783 26.3448 17.7598C26.3448 17.5122 26.1044 17.2551 25.7741 17.2551Z" fill="#016FD0"></path><path fill-rule="evenodd" clip-rule="evenodd" d="M32.5436 20.9749V19.9338H34.9556C35.3124 19.9338 35.467 19.742 35.467 19.5316C35.467 19.33 35.3129 19.1262 34.9556 19.1262H33.8656C32.9183 19.1262 32.3906 18.552 32.3906 17.69C32.3906 16.9211 32.8738 16.1797 34.2816 16.1797H36.6285L36.1211 17.2586H34.0913C33.7033 17.2586 33.5839 17.4611 33.5839 17.6545C33.5839 17.8533 33.7315 18.0725 34.0279 18.0725H35.1696C36.2257 18.0725 36.684 18.6684 36.684 19.4488C36.684 20.2877 36.1733 20.9749 35.1121 20.9749H32.5436Z" fill="#016FD0"></path><path fill-rule="evenodd" clip-rule="evenodd" d="M36.9733 20.9749V19.9338H39.3852C39.7421 19.9338 39.8966 19.742 39.8966 19.5316C39.8966 19.33 39.7426 19.1262 39.3852 19.1262H38.2953C37.3479 19.1262 36.8203 18.552 36.8203 17.69C36.8203 16.9211 37.3035 16.1797 38.7113 16.1797H41.0582L40.5508 17.2586H38.521C38.133 17.2586 38.0136 17.4611 38.0136 17.6545C38.0136 17.8533 38.1612 18.0725 38.4576 18.0725H39.5993C40.6554 18.0725 41.1137 18.6684 41.1137 19.4488C41.1137 20.2877 40.603 20.9749 39.5418 20.9749H36.9733Z" fill="#016FD0"></path></g><defs><clipPath id="clip0_11409_62319"><rect width="41" height="28" rx="2" fill="white"></rect></clipPath></defs></svg>