<svg width="64" height="65" viewBox="0 0 64 65" fill="none" xmlns="http://www.w3.org/2000/svg">
<rect y="0.678711" width="64" height="64" rx="32" fill="#CDF986"/>
<path fill-rule="evenodd" clip-rule="evenodd" d="M25.7923 32.9329C25.5048 32.5974 25.5432 32.0924 25.8787 31.8049C26.2152 31.5174 26.7192 31.5564 27.0067 31.8913L28.6067 33.758C28.8637 34.0577 28.8637 34.4998 28.6067 34.7996L27.0067 36.6662C26.8483 36.8508 26.6248 36.9452 26.3992 36.9452C26.2147 36.9452 26.0296 36.8822 25.8787 36.7526C25.5432 36.4652 25.5048 35.9601 25.7923 35.6246L26.9459 34.2785L25.7923 32.9329ZM30.6664 35.8785C30.6664 35.4369 31.0248 35.0785 31.4664 35.0785H34.9331C35.3747 35.0785 35.7331 35.4369 35.7331 35.8785C35.7331 36.3206 35.3747 36.6785 34.9331 36.6785H31.4664C31.0248 36.6785 30.6664 36.3206 30.6664 35.8785ZM30.6664 32.6785C30.6664 32.2369 31.0248 31.8785 31.4664 31.8785H37.0664C37.508 31.8785 37.8664 32.2369 37.8664 32.6785C37.8664 33.1206 37.508 33.4785 37.0664 33.4785H31.4664C31.0248 33.4785 30.6664 33.1206 30.6664 32.6785ZM22.6664 40.4118H41.3331V28.6785H22.6664V40.4118ZM22.6664 27.0785H25.8664V24.9452H22.6664V27.0785ZM27.4664 27.0785H41.3331V24.9452H27.4664V27.0785ZM41.8664 23.3452H22.1331C21.5437 23.3452 21.0664 23.823 21.0664 24.4118V40.9452C21.0664 41.5345 21.5437 42.0118 22.1331 42.0118H41.8664C42.4552 42.0118 42.9331 41.5345 42.9331 40.9452V24.4118C42.9331 23.823 42.4552 23.3452 41.8664 23.3452Z" fill="#171E16"/>
</svg>
