<svg width="64" height="65" viewBox="0 0 64 65" fill="none" xmlns="http://www.w3.org/2000/svg">
<rect y="0.678711" width="64" height="64" rx="32" fill="#CDF986"/>
<path fill-rule="evenodd" clip-rule="evenodd" d="M29.3333 42.012C28.592 42.012 27.9467 41.5747 27.6533 40.9454C27.5307 40.7054 27.4667 40.4334 27.4667 40.1454C27.4667 39.8574 27.5307 39.5854 27.6533 39.3454C27.9467 38.716 28.592 38.2787 29.3333 38.2787C30.0747 38.2787 30.72 38.716 31.0133 39.3454C31.136 39.5854 31.2 39.8574 31.2 40.1454C31.2 40.4334 31.136 40.7054 31.0133 40.9454C30.72 41.5747 30.0747 42.012 29.3333 42.012ZM42.1333 39.3454H32.704C32.3467 37.8147 30.9707 36.6787 29.3333 36.6787C27.696 36.6787 26.32 37.8147 25.9627 39.3454H21.8667C21.424 39.3454 21.0667 39.7027 21.0667 40.1454C21.0667 40.588 21.424 40.9454 21.8667 40.9454H25.9627C26.32 42.476 27.696 43.612 29.3333 43.612C30.9707 43.612 32.3467 42.476 32.704 40.9454H42.1333C42.576 40.9454 42.9333 40.588 42.9333 40.1454C42.9333 39.7027 42.576 39.3454 42.1333 39.3454ZM36.8 34.5454C36.0587 34.5454 35.4133 34.108 35.12 33.4787C34.9973 33.2387 34.9333 32.9667 34.9333 32.6787C34.9333 32.3907 34.9973 32.1187 35.12 31.8787C35.4133 31.2494 36.0587 30.812 36.8 30.812C37.5413 30.812 38.1867 31.2494 38.48 31.8787C38.6027 32.1187 38.6667 32.3907 38.6667 32.6787C38.6667 32.9667 38.6027 33.2387 38.48 33.4787C38.1867 34.108 37.5413 34.5454 36.8 34.5454ZM42.1333 31.8787H40.1707C39.8133 30.348 38.4373 29.212 36.8 29.212C35.1627 29.212 33.7867 30.348 33.4293 31.8787H21.8667C21.424 31.8787 21.0667 32.236 21.0667 32.6787C21.0667 33.1214 21.424 33.4787 21.8667 33.4787H33.4293C33.7867 35.0094 35.1627 36.1454 36.8 36.1454C38.4373 36.1454 39.8133 35.0094 40.1707 33.4787H42.1333C42.576 33.4787 42.9333 33.1214 42.9333 32.6787C42.9333 32.236 42.576 31.8787 42.1333 31.8787ZM27.7333 23.3454C28.4747 23.3454 29.12 23.7827 29.4133 24.412C29.536 24.652 29.6 24.924 29.6 25.212C29.6 25.5 29.536 25.772 29.4133 26.012C29.12 26.6414 28.4747 27.0787 27.7333 27.0787C26.992 27.0787 26.3467 26.6414 26.0533 26.012C25.9307 25.772 25.8667 25.5 25.8667 25.212C25.8667 24.924 25.9307 24.652 26.0533 24.412C26.3467 23.7827 26.992 23.3454 27.7333 23.3454ZM21.8667 26.012H24.3627C24.72 27.5427 26.096 28.6787 27.7333 28.6787C29.3707 28.6787 30.7467 27.5427 31.104 26.012H42.1333C42.576 26.012 42.9333 25.6547 42.9333 25.212C42.9333 24.7694 42.576 24.412 42.1333 24.412H31.104C30.7467 22.8814 29.3707 21.7454 27.7333 21.7454C26.096 21.7454 24.72 22.8814 24.3627 24.412H21.8667C21.424 24.412 21.0667 24.7694 21.0667 25.212C21.0667 25.6547 21.424 26.012 21.8667 26.012Z" fill="black"/>
</svg>
