<svg width="64" height="65" viewBox="0 0 64 65" fill="none" xmlns="http://www.w3.org/2000/svg">
<rect y="0.678711" width="64" height="64" rx="32" fill="#CDF986"/>
<path fill-rule="evenodd" clip-rule="evenodd" d="M26.9224 36.2805C26.8499 35.8448 26.4366 35.5488 26.0019 35.6229C25.5662 35.6955 25.2718 36.1077 25.3443 36.5435L26.411 42.9435C26.476 43.3349 26.8152 43.6123 27.1992 43.6123C27.243 43.6123 27.2872 43.6085 27.3315 43.6011C27.7672 43.5285 28.0616 43.1163 27.9891 42.6805L26.9224 36.2805ZM38.539 32.9579C38.1059 32.8811 37.6888 33.1712 37.612 33.6064L36.012 42.6731C35.9352 43.1083 36.2259 43.5232 36.6611 43.6C36.708 43.608 36.755 43.6123 36.8008 43.6123C37.1816 43.6123 37.5192 43.3392 37.588 42.9509L39.188 33.8843C39.2648 33.4491 38.9742 33.0347 38.539 32.9579ZM37.0867 30.2789H35.1534L34.3987 42.8597C34.3731 43.2848 34.0206 43.6123 33.6008 43.6123C33.5848 43.6123 33.5683 43.6117 33.5523 43.6107C33.1112 43.584 32.7752 43.2053 32.8014 42.7643L33.6014 29.4309C33.627 29.0085 33.9768 28.6789 34.4003 28.6789H35.9955L31.9699 23.5147L27.9966 28.6789H29.6003C30.0232 28.6789 30.3731 29.0085 30.3987 29.4309L31.1987 42.7643C31.2248 43.2053 30.8888 43.584 30.4478 43.6107C30.0019 43.6347 29.6275 43.3008 29.6014 42.8597L28.8467 30.2789H26.9134C26.5139 30.2789 26.1512 30.0587 25.9672 29.704C25.7827 29.3499 25.811 28.9264 26.0403 28.5995L30.9006 22.2811C31.1331 21.9547 31.5384 21.7456 31.9683 21.7456H31.9688C32.3987 21.7456 32.804 21.9541 33.0542 22.304L37.9358 28.5669C38.1891 28.9264 38.2174 29.3499 38.0328 29.704C37.8488 30.0587 37.4862 30.2789 37.0867 30.2789Z" fill="#171E16"/>
</svg>
