<svg width="64" height="65" viewBox="0 0 64 65" fill="none" xmlns="http://www.w3.org/2000/svg">
<rect y="0.678711" width="64" height="64" rx="32" fill="#CDF986"/>
<path fill-rule="evenodd" clip-rule="evenodd" d="M41.6 32.4121C41.1584 32.4121 40.8 32.7699 40.8 33.2121V40.9454H24.2405C29.0667 39.3454 34.9333 34.5454 36.5333 31.3875V33.7454C36.5333 34.187 36.8917 34.5454 37.3333 34.5454C37.7749 34.5454 38.1333 34.187 38.1333 33.7454V29.4787C38.1333 29.0371 37.7749 28.6787 37.3333 28.6787H33.0667C32.6251 28.6787 32.2667 29.0371 32.2667 29.4787C32.2667 29.9203 32.6251 30.2787 33.0667 30.2787H35.3739C33.8667 33.4787 26.9333 38.8121 22.6667 39.9091V26.5454H32.8C33.2416 26.5454 33.6 26.1875 33.6 25.7454C33.6 25.3033 33.2416 24.9454 32.8 24.9454H22.6667C21.7829 24.9454 21.0667 25.6617 21.0667 26.5454V40.9454C21.0667 41.8291 21.7829 42.5454 22.6667 42.5454H40.8C41.6837 42.5454 42.4 41.8291 42.4 40.9454V33.2121C42.4 32.7699 42.0416 32.4121 41.6 32.4121ZM42.1333 28.6787H41.0667C40.6251 28.6787 40.2667 29.0366 40.2667 29.4787C40.2667 29.9209 40.6251 30.2787 41.0667 30.2787H42.1333C42.5749 30.2787 42.9333 29.9209 42.9333 29.4787C42.9333 29.0366 42.5749 28.6787 42.1333 28.6787ZM36.8 26.0121C37.2416 26.0121 37.6 25.6542 37.6 25.2121V24.1454C37.6 23.7033 37.2416 23.3454 36.8 23.3454C36.3584 23.3454 36 23.7033 36 24.1454V25.2121C36 25.6542 36.3584 26.0121 36.8 26.0121ZM39.4341 26.8446C39.1221 26.5321 39.1221 26.0254 39.4341 25.7129L40.5008 24.6462C40.8133 24.3342 41.32 24.3342 41.6325 24.6462C41.9445 24.9587 41.9445 25.4654 41.6325 25.7779L40.5659 26.8446C40.4096 27.0009 40.2048 27.0787 40 27.0787C39.7952 27.0787 39.5904 27.0009 39.4341 26.8446Z" fill="black"/>
</svg>
