<svg width="64" height="65" viewBox="0 0 64 65" fill="none" xmlns="http://www.w3.org/2000/svg">
<rect y="0.678711" width="64" height="64" rx="32" fill="#CDF986"/>
<path fill-rule="evenodd" clip-rule="evenodd" d="M36.3107 36.9657C36.6163 36.6468 36.6056 36.1401 36.2867 35.8345L32.8051 32.5945L33.2472 27.4132C33.2851 26.9732 32.9587 26.586 32.5187 26.5481C32.0755 26.5113 31.6909 26.8372 31.6536 27.2772L31.1784 32.8398C31.1576 33.0804 31.2472 33.3177 31.4216 33.4852L35.1795 36.9897C35.3347 37.138 35.5341 37.2121 35.7331 37.2121C35.9437 37.2121 36.1533 37.1294 36.3107 36.9657ZM42.9331 32.6788C42.9331 38.7054 38.0264 43.6121 31.9997 43.6121C25.9731 43.6121 21.0664 38.7054 21.0664 32.6788C21.0664 32.2361 21.4237 31.8788 21.8664 31.8788C22.3091 31.8788 22.6664 32.2361 22.6664 32.6788C22.6664 37.8254 26.8531 42.0121 31.9997 42.0121C37.1464 42.0121 41.3331 37.8254 41.3331 32.6788C41.3331 27.5321 37.1464 23.3454 31.9997 23.3454C29.0504 23.3454 26.2664 24.7641 24.5224 27.1054H27.1997C27.6424 27.1054 27.9997 27.4628 27.9997 27.9054C27.9997 28.3481 27.6424 28.7054 27.1997 28.7054H22.9331C22.4904 28.7054 22.1331 28.3481 22.1331 27.9054V23.6388C22.1331 23.1961 22.4904 22.8388 22.9331 22.8388C23.3757 22.8388 23.7331 23.1961 23.7331 23.6388V25.5374C25.7811 23.1641 28.8104 21.7454 31.9997 21.7454C38.0264 21.7454 42.9331 26.6521 42.9331 32.6788Z" fill="black"/>
</svg>
