<svg width="64" height="65" viewBox="0 0 64 65" fill="none" xmlns="http://www.w3.org/2000/svg">
<rect y="0.678711" width="64" height="64" rx="32" fill="#CDF986"/>
<path fill-rule="evenodd" clip-rule="evenodd" d="M36.4862 29.131C36.8243 29.4142 36.8697 29.9177 36.5875 30.2563L31.5209 36.123C31.3875 36.2851 31.1966 36.3886 30.9875 36.411H30.9075C30.7102 36.4099 30.5203 36.3358 30.3742 36.203L27.4409 33.5363C27.1406 33.2126 27.1593 32.7065 27.483 32.4057C27.7667 32.1422 28.1982 32.1198 28.5075 32.3523L30.8222 34.459L35.3555 29.2323C35.6393 28.8937 36.1438 28.8494 36.4825 29.1331C36.4841 29.1342 36.4851 29.1353 36.4862 29.1363V29.131ZM29.3549 23.8623C29.1107 23.8623 28.8765 23.9764 28.7272 24.1801L27.7011 25.5833C27.4029 25.9908 26.9896 26.2873 26.5059 26.442L24.8403 26.9737C24.5176 27.0767 24.3016 27.3711 24.3021 27.706L24.3053 29.4383C24.3069 29.9401 24.1491 30.4207 23.8493 30.8276L22.8173 32.2265C22.6179 32.4969 22.6179 32.8607 22.8173 33.1311L23.8493 34.5305C24.1491 34.9369 24.3069 35.4175 24.3053 35.9199L24.3021 37.6516C24.3016 37.9865 24.5176 38.2809 24.8397 38.3839L26.5064 38.9161C26.9896 39.0703 27.4029 39.3673 27.7011 39.7743L28.7272 41.1775C28.9256 41.4489 29.2744 41.562 29.5976 41.4569L31.2616 40.9188C31.7443 40.7625 32.2552 40.7625 32.7389 40.9188L34.4024 41.4569C34.7229 41.5615 35.0739 41.4489 35.2728 41.1775L36.2989 39.7743C36.5971 39.3673 37.0104 39.0703 37.4941 38.9156L39.1597 38.3839C39.4824 38.2809 39.6984 37.9865 39.6979 37.6516L39.6947 35.9193C39.6931 35.4175 39.8509 34.9369 40.1507 34.5305L41.1827 33.1311C41.3821 32.8607 41.3821 32.4969 41.1827 32.2265L40.1507 30.8271C39.8509 30.4207 39.6931 29.9401 39.6947 29.4377L39.6979 27.7065C39.6984 27.3711 39.4824 27.0767 39.1603 26.9743L37.4936 26.442C37.0104 26.2873 36.5971 25.9908 36.2989 25.5833L35.2728 24.1801C35.0739 23.9087 34.7245 23.7956 34.4024 23.9007L32.7389 24.4388C32.2552 24.5951 31.7443 24.5951 31.2611 24.4388L29.5976 23.9007C29.5176 23.8745 29.4355 23.8623 29.3549 23.8623ZM29.3523 43.0788C28.6056 43.0788 27.8883 42.7295 27.4312 42.1049L26.4051 40.7023C26.3075 40.5689 26.1725 40.4719 26.0147 40.4217L24.3485 39.8895C23.3624 39.5748 22.7005 38.674 22.7027 37.6489L22.7059 35.9172C22.7059 35.7524 22.6547 35.5956 22.5565 35.4633L21.5251 34.0633C20.9139 33.2356 20.9139 32.1225 21.5251 31.2937L22.5565 29.8948C22.6547 29.7625 22.7059 29.6052 22.7059 29.4409L22.7027 27.7087C22.7005 26.6836 23.3624 25.7833 24.3485 25.4681L26.0147 24.9364C26.1725 24.8857 26.3075 24.7887 26.4051 24.6553L27.4312 23.2527C28.0392 22.4223 29.1091 22.0767 30.0947 22.3967L31.7587 22.9348C31.9171 22.986 32.084 22.986 32.2408 22.9348H32.2413L33.9053 22.3967C34.8899 22.0767 35.9603 22.4217 36.5688 23.2527L37.5949 24.6553C37.6925 24.7887 37.8275 24.8857 37.9853 24.9359L39.6515 25.4681C40.6376 25.7833 41.2995 26.6836 41.2973 27.7087L41.2941 29.4404C41.2941 29.6052 41.3453 29.7625 41.4435 29.8948L42.4749 31.2943C43.0861 32.1225 43.0861 33.2356 42.4749 34.0639L41.4435 35.4628C41.3453 35.5956 41.2941 35.7524 41.2941 35.9167L41.2973 37.6489C41.2995 38.674 40.6376 39.5748 39.6515 39.8895L37.9853 40.4212C37.8275 40.4719 37.6925 40.5689 37.5949 40.7023L36.5688 42.1049C35.9608 42.9353 34.8899 43.2799 33.9053 42.9615L32.2413 42.4228C32.0829 42.3721 31.916 42.3721 31.7592 42.4228L30.0947 42.9615C29.8493 43.0404 29.5992 43.0788 29.3523 43.0788Z" fill="#171E16"/>
</svg>
