<svg class="max-sm:w-[29px] max-sm:h-[20px]" width="35" height="24" viewBox="0 0 41 28" fill="none" xmlns="http://www.w3.org/2000/svg"><title id="mastercard">Mastercard</title><rect x="0.5" y="0.5" width="40" height="27" rx="1.5" fill="white"></rect><rect x="0.5" y="0.5" width="40" height="27" rx="1.5" stroke="#E5E5E5"></rect><g opacity="0.01"><rect x="7.97656" y="5.83203" width="25.0409" height="16.3333" fill="white"></rect></g><rect x="17.1953" y="8.67969" width="6.60565" height="10.6402" fill="#FF5F00"></rect><path fill-rule="evenodd" clip-rule="evenodd" d="M17.8706 13.9999C17.869 11.924 18.8353 9.96254 20.4911 8.6808C17.6781 6.50052 13.6384 6.8181 11.2111 9.41034C8.7838 12.0026 8.7838 15.9992 11.2111 18.5914C13.6384 21.1837 17.6781 21.5012 20.4911 19.321C18.8348 18.0388 17.8684 16.0766 17.8706 13.9999Z" fill="#EB001B"></path><path fill-rule="evenodd" clip-rule="evenodd" d="M30.9572 18.0212V18.4633H30.911V18.0212H30.8125V17.9297H31.062V18.0212H30.9572ZM31.4409 17.9297V18.4633H31.3885V18.0593L31.3067 18.4061H31.2501L31.1684 18.0593V18.4633H31.1139V17.9297H31.1893L31.2774 18.3109L31.3654 17.9297H31.4409Z" fill="#F79E1B"></path><path fill-rule="evenodd" clip-rule="evenodd" d="M31.5937 13.9986C31.5937 16.5893 30.0937 18.9525 27.7309 20.0846C25.3681 21.2167 22.5573 20.919 20.4922 19.3178C22.1473 18.035 23.1137 16.0738 23.1137 13.9977C23.1137 11.9216 22.1473 9.96045 20.4922 8.67762C22.5573 7.07645 25.3681 6.77868 27.7309 7.91079C30.0937 9.04289 31.5937 11.4061 31.5937 13.9968V13.9986Z" fill="#F79E1B"></path></svg>