<svg aria-hidden="true" viewBox="0 0 16 16" fill="inherit" class="CDS_Icon_icon__c30ce7 CDS_Icon_default__c30ce7" xmlns="http://www.w3.org/2000/svg" width="17px" height="17px" role="img"><g clip-path="url(#a)" fill-rule="evenodd" clip-rule="evenodd"><path d="M8 1a7 7 0 1 0 0 14A7 7 0 0 0 8 1ZM0 8a8 8 0 1 1 16 0A8 8 0 0 1 0 8Z"></path><path d="M5.5 6.475a.5.5 0 0 0-.5.5H4a1.5 1.5 0 0 1 3 0H6a.5.5 0 0 0-.5-.5Zm5 0a.5.5 0 0 0-.5.5H9a1.5 1.5 0 0 1 3 0h-1a.5.5 0 0 0-.5-.5ZM2.842 9.5h10.316l-.176.634C12.377 12.306 10.394 14 8 14s-4.377-1.694-4.982-3.866L2.842 9.5Zm1.371 1C4.878 11.957 6.328 13 8 13c1.672 0 3.122-1.043 3.787-2.5H4.213Z"></path></g><defs><clipPath id="a"><path d="M0 0h16v16H0z"></path></clipPath></defs></svg>