<svg class="max-sm:w-[29px] max-sm:h-[20px]" width="35" height="24" viewBox="0 0 41 28" fill="none" xmlns="http://www.w3.org/2000/svg"><title id="visa">Visa</title><rect x="0.5" y="0.5" width="40" height="27" rx="1.5" fill="white"></rect><rect x="0.5" y="0.5" width="40" height="27" rx="1.5" stroke="#E5E5E5"></rect><path fill-rule="evenodd" clip-rule="evenodd" d="M18.5238 18.531H16.125L17.6254 9.49609H20.024L18.5238 18.531Z" fill="#0742A6"></path><path fill-rule="evenodd" clip-rule="evenodd" d="M27.2269 9.71668C26.7538 9.53387 26.0033 9.33203 25.0754 9.33203C22.7065 9.33203 21.0384 10.5623 21.0282 12.3211C21.0085 13.6188 22.2225 14.3395 23.1305 14.7722C24.0586 15.2144 24.374 15.5029 24.374 15.897C24.3646 16.5023 23.6241 16.7813 22.9335 16.7813C21.9758 16.7813 21.4626 16.6375 20.6828 16.3007L20.3669 16.1564L20.0312 18.1845C20.5939 18.4341 21.6304 18.6557 22.7065 18.6654C25.2235 18.6654 26.8621 17.4542 26.8816 15.5798C26.8911 14.5513 26.2501 13.7633 24.868 13.1193C24.029 12.7059 23.5152 12.4271 23.5152 12.0042C23.5251 11.6196 23.9498 11.2258 24.8969 11.2258C25.6767 11.2065 26.2497 11.389 26.6837 11.5717L26.9007 11.6677L27.2269 9.71668Z" fill="#0742A6"></path><path fill-rule="evenodd" clip-rule="evenodd" d="M31.5122 9.49609H33.3676L35.3028 18.5309H33.0818C33.0818 18.5309 32.8644 17.4928 32.7956 17.1756H29.7157C29.6267 17.4158 29.2123 18.5309 29.2123 18.5309H26.6953L30.2584 10.2457C30.5053 9.65936 30.94 9.49609 31.5122 9.49609ZM31.3633 12.8024C31.3633 12.8024 30.6031 14.8113 30.4056 15.3303H32.3994C32.3008 14.8786 31.8465 12.716 31.8465 12.716L31.6789 11.9374C31.6083 12.1379 31.5062 12.4135 31.4373 12.5994C31.3906 12.7254 31.3592 12.8102 31.3633 12.8024Z" fill="#0742A6"></path><path fill-rule="evenodd" clip-rule="evenodd" d="M14.1255 9.49609L11.7763 15.657L11.5196 14.4075C11.0853 12.9658 9.72317 11.3993 8.20312 10.6204L10.3549 18.5214H12.8916L16.662 9.49609H14.1255V9.49609Z" fill="#0742A6"></path><path fill-rule="evenodd" clip-rule="evenodd" d="M9.5942 9.49609H5.7348L5.69531 9.67865C8.70589 10.4284 10.6997 12.2357 11.5189 14.4079L10.6799 10.2556C10.5418 9.67852 10.1173 9.51513 9.5942 9.49609Z" fill="#0742A6"></path></svg>