<svg xmlns="http://www.w3.org/2000/svg" width="16" height="16" viewBox="0 0 16 16"><g fill="none" fill-rule="evenodd"><rect width="16" height="16"></rect><path fill="#6f6f87" fill-rule="nonzero" d="M0.25,3 C0.25,2.58578644 0.585786438,2.25 1,2.25 L15,2.25 C15.4142136,2.25 15.75,2.58578644 15.75,3 L15.75,13 C15.75,13.4142136 15.4142136,13.75 15,13.75 L1,13.75 C0.585786438,13.75 0.25,13.4142136 0.25,13 L0.25,3 Z M1.75,3.75 L1.75,12.25 L14.25,12.25 L14.25,3.75 L1.75,3.75 Z M13.1281281,3.74889215 L8,8.63095238 C6.48113682,7.18441602 4.77241574,5.55743189 2.87383676,3.75 L1.74919491,3.74889215 L1.74919491,4.74923325 C3.02332018,5.96268589 4.93450808,7.78286484 7.48275862,10.2097701 C7.77241379,10.4856322 8.22758621,10.4856322 8.51724138,10.2097701 L14.2514115,4.74923325 L14.2514115,3.75 L13.1281281,3.74889215 Z"></path></g></svg>