<svg xmlns="http://www.w3.org/2000/svg" width="18" height="18" viewBox="0 0 18 18"><g fill="none" fill-rule="evenodd"><polygon points="0 0 18 0 18 18 0 18"></polygon><path fill="#6F6F87" fill-rule="nonzero" d="M10.5,6.75 L10.5,3 L3.75,3 L3.75,15 L8.292,15 C8.538,15.31275 8.835,15.58875 9.177,15.81375 L10.2195,16.5 L2.99475,16.5 C2.58372865,16.5 2.25041392,16.1670211 2.25,15.756 L2.25,2.244 C2.25,1.84125 2.58675,1.5 3.0015,1.5 L11.24775,1.5 L15.75,6 L15.75,6.75 L10.5,6.75 Z M9,8.25 L15.75,8.25 L15.75,12.71175 C15.75,13.45425 15.37425,14.14875 14.748,14.5605 L12.375,16.1235 L10.002,14.5605 C9.37831056,14.1523555 9.00175182,13.4578639 9,12.7125 L9,8.25 Z M10.5,12.71175 C10.5,12.94875 10.6215,13.17225 10.827,13.308 L12.375,14.328 L13.923,13.308 C14.125519,13.1770592 14.2484499,12.9529077 14.25,12.71175 L14.25,9.75 L10.5,9.75 L10.5,12.71175 L10.5,12.71175 Z"></path></g></svg>