<svg xmlns="http://www.w3.org/2000/svg" width="16" height="16" viewBox="0 0 16 16"><g fill="none" fill-rule="evenodd"><rect width="16" height="16"></rect><path fill="#6f6f87" fill-rule="nonzero" d="M0.00414732296,0.754147323 C0.00414732296,0.339933761 0.339933761,0.00414732296 0.754147323,0.00414732296 L6.38648925,0.00414732296 C6.80070282,0.00414732296 7.13648925,0.339933761 7.13648925,0.754147323 L7.13648925,6.38648925 C7.13648925,6.80070282 6.80070282,7.13648925 6.38648925,7.13648925 L0.754147323,7.13648925 C0.339933761,7.13648925 0.00414732296,6.80070282 0.00414732296,6.38648925 L0.00414732296,0.754147323 Z M1.50414732,1.50414732 L1.50414732,5.63648925 L5.63648925,5.63648925 L5.63648925,1.50414732 L1.50414732,1.50414732 Z M8.85497036,0.754147323 C8.85497036,0.339933761 9.19075679,0.00414732296 9.60497036,0.00414732296 L15.2373123,0.00414732296 C15.6515259,0.00414732296 15.9873123,0.339933761 15.9873123,0.754147323 L15.9873123,6.38648925 C15.9873123,6.80070282 15.6515259,7.13648925 15.2373123,7.13648925 L9.60497036,7.13648925 C9.19075679,7.13648925 8.85497036,6.80070282 8.85497036,6.38648925 L8.85497036,0.754147323 Z M10.3549704,1.50414732 L10.3549704,5.63648925 L14.4873123,5.63648925 L14.4873123,1.50414732 L10.3549704,1.50414732 Z M0.00414732296,9.60497036 C0.00414732296,9.19075679 0.339933761,8.85497036 0.754147323,8.85497036 L6.38648925,8.85497036 C6.80070282,8.85497036 7.13648925,9.19075679 7.13648925,9.60497036 L7.13648925,15.2373123 C7.13648925,15.6515259 6.80070282,15.9873123 6.38648925,15.9873123 L0.754147323,15.9873123 C0.339933761,15.9873123 0.00414732296,15.6515259 0.00414732296,15.2373123 L0.00414732296,9.60497036 Z M1.50414732,10.3549704 L1.50414732,14.4873123 L5.63648925,14.4873123 L5.63648925,10.3549704 L1.50414732,10.3549704 Z M8.85497036,9.60497036 C8.85497036,9.19075679 9.19075679,8.85497036 9.60497036,8.85497036 L15.2373123,8.85497036 C15.6515259,8.85497036 15.9873123,9.19075679 15.9873123,9.60497036 L15.9873123,15.2373123 C15.9873123,15.6515259 15.6515259,15.9873123 15.2373123,15.9873123 L9.60497036,15.9873123 C9.19075679,15.9873123 8.85497036,15.6515259 8.85497036,15.2373123 L8.85497036,9.60497036 Z M10.3549704,14.4873123 L14.4873123,14.4873123 L14.4873123,10.3549704 L10.3549704,10.3549704 L10.3549704,14.4873123 Z"></path></g></svg>