<svg xmlns="http://www.w3.org/2000/svg" width="16" height="16" viewBox="0 0 16 16"><g fill="none" fill-rule="evenodd"><rect width="16" height="16"></rect><path fill="#6f6f87" fill-rule="nonzero" d="M11.1478678,9.43587317 C11.8559326,8.4355912 12.25,7.15539327 12.25,5.375 C12.25,2.07636107 10.7890755,0.25 8,0.25 C5.21092449,0.25 3.75,2.07636107 3.75,5.375 C3.75,7.15539327 4.14406744,8.4355912 4.85213221,9.43587317 C5.059096,9.72825059 5.13891152,9.81946166 5.54461538,10.2576968 C5.14990857,10.600051 4.63570414,10.8882416 3.79862008,11.2719051 C3.69365476,11.3200142 3.56878556,11.376607 3.33564779,11.4822251 C1.13591692,12.4821028 0.25,13.2679969 0.25,15 C0.25,15.4142136 0.585786438,15.75 1,15.75 C1.41421356,15.75 1.75,15.4142136 1.75,15 C1.75,14.0697451 2.25648986,13.6204396 3.95635221,12.8477749 C4.18677,12.743393 4.31523413,12.685171 4.42360214,12.6355023 C5.54236024,12.1227382 6.20048339,11.7351768 6.78033009,11.1553301 C7.07838731,10.8572729 7.23012564,10.5096541 7.16398526,10.1128119 C7.09140519,9.67733147 6.11187453,8.61928828 6.07643922,8.56922887 C5.5506629,7.8264655 5.25,6.84970877 5.25,5.375 C5.25,2.84039671 6.12221924,1.75 8,1.75 C9.87778076,1.75 10.75,2.84039671 10.75,5.375 C10.75,6.84970877 10.4493371,7.8264655 9.92356078,8.56922887 C9.88812547,8.61928828 8.90859481,9.67733147 8.83601474,10.1128119 C8.76987436,10.5096541 8.92161269,10.8572729 9.21966991,11.1553301 C9.79951661,11.7351768 10.4576398,12.1227382 11.5763979,12.6355023 C11.6847659,12.685171 11.81323,12.743393 12.0436478,12.8477749 C13.7435101,13.6204396 14.25,14.0697451 14.25,15 C14.25,15.4142136 14.5857864,15.75 15,15.75 C15.4142136,15.75 15.75,15.4142136 15.75,15 C15.75,13.2679969 14.8640831,12.4821028 12.6643522,11.4822251 C12.4312144,11.376607 12.3063452,11.3200142 12.2013799,11.2719051 C11.3642959,10.8882416 10.8500914,10.600051 10.4553846,10.2576968 C10.8610885,9.81946166 10.940904,9.72825059 11.1478678,9.43587317 Z"></path></g></svg>