<svg xmlns="http://www.w3.org/2000/svg" width="16" height="16" viewBox="0 0 16 16"><g fill="none" fill-rule="evenodd"><rect width="16" height="16"></rect><path fill="#6f6f87" fill-rule="nonzero" d="M8.53508612,15.7183972 C8.24113864,16.0176892 7.75886136,16.0176892 7.46491388,15.7183972 C4.04251529,12.2337732 2.30493352,8.86391767 2.30493352,5.60243427 C2.30493352,2.53464356 4.85977833,0.05721829 8,0.05721829 C11.1402217,0.05721829 13.6950665,2.53464356 13.6950665,5.60243427 C13.6950665,8.86391767 11.9574847,12.2337732 8.53508612,15.7183972 Z M12.1950665,5.60243427 C12.1950665,3.37357566 10.3219479,1.55721829 8,1.55721829 C5.67805206,1.55721829 3.80493352,3.37357566 3.80493352,5.60243427 C3.80493352,8.25189898 5.18858483,11.0888901 8,14.1080601 C10.8114152,11.0888901 12.1950665,8.25189898 12.1950665,5.60243427 Z M8,7.15163693 C7.13568233,7.15163693 6.42582225,6.46328777 6.42582225,5.60243427 C6.42582225,4.74158077 7.13568233,4.05323161 8,4.05323161 C8.86431767,4.05323161 9.57417775,4.74158077 9.57417775,5.60243427 C9.57417775,6.46328777 8.86431767,7.15163693 8,7.15163693 Z"></path></g></svg>