<svg xmlns="http://www.w3.org/2000/svg" width="22" height="16" viewBox="0 0 22 16"><g fill="none" fill-rule="evenodd"><rect width="22" height="16"></rect><path fill="#6f6f87" fill-rule="nonzero" d="M11.0054525,10.6394606 C11.238571,10.5093614 11.4966735,10.3848281 11.8778131,10.2115828 C12.0638139,10.1273186 12.1629227,10.0824009 12.246195,10.0442344 C12.8160645,9.78304419 13.1920525,9.57982182 13.4785911,9.35931822 C13.2427165,9.10299496 13.1737537,9.01921888 13.0245101,8.80838267 C12.4419093,7.98534354 12.1184861,6.93464569 12.1184861,5.48524986 C12.1184861,2.77976842 13.3421631,1.25 15.6566859,1.25 C17.9712088,1.25 19.1948858,2.77976842 19.1948858,5.48524986 C19.1948858,6.93464569 18.8714625,7.98534354 18.2888618,8.80838267 C18.1396182,9.01921888 18.0706554,9.10299496 17.8347807,9.35931822 C18.1213193,9.57982182 18.4973074,9.78304419 19.0671768,10.0442344 C19.1504492,10.0824009 19.249558,10.1273186 19.4355588,10.2115828 C21.2387567,11.0312182 21.9830857,11.6915101 21.9830857,13.1527995 C21.9830857,13.5670131 21.6472993,13.9027995 21.2330857,13.9027995 C20.8188721,13.9027995 20.4830857,13.5670131 20.4830857,13.1527995 C20.4830857,12.4932583 20.1181838,12.1695549 18.8148544,11.5771325 C18.6315736,11.4941047 18.5288698,11.4475577 18.4421948,11.4078316 C17.5354622,10.9922458 16.9987694,10.6761934 16.5204558,10.1978798 C16.2512563,9.92868025 16.1103294,9.60582949 16.1722259,9.23445046 C16.238868,8.83459789 17.0615741,7.9459492 17.0645548,7.94173838 C17.4648671,7.37621784 17.6948858,6.6289612 17.6948858,5.48524986 C17.6948858,3.54380407 17.059914,2.75 15.6566859,2.75 C14.2534579,2.75 13.6184861,3.54380407 13.6184861,5.48524986 C13.6184861,6.6289612 13.8485048,7.37621784 14.2488171,7.94173838 C14.2517978,7.9459492 15.0745039,8.83459789 15.141146,9.23445046 C15.2030425,9.60582949 15.0621156,9.92868025 14.7929161,10.1978798 C14.3146024,10.6761934 13.7779096,10.9922458 12.8711771,11.4078316 C12.784502,11.4475577 12.6817983,11.4941047 12.4985175,11.5771325 C12.4201508,11.6127537 12.3479431,11.6459016 12.2809061,11.6771054 C12.56055,12.076625 12.6890861,12.5455513 12.6890861,13.1527995 C12.6890861,13.5670131 12.3532997,13.9027995 11.9390861,13.9027995 C11.5248725,13.9027995 11.1890861,13.5670131 11.1890861,13.1527995 C11.1890861,12.4932583 10.8241841,12.1695549 9.52085477,11.5771325 C9.33757397,11.4941047 9.23487022,11.4475577 9.14819516,11.4078316 C8.24146263,10.9922458 7.70476983,10.6761934 7.22645618,10.1978798 C6.95725666,9.92868025 6.81632974,9.60582949 6.87822624,9.23445046 C6.94486834,8.83459789 7.76757448,7.9459492 7.77055518,7.94173838 C8.17086747,7.37621784 8.40088621,6.6289612 8.40088621,5.48524986 C8.40088621,3.54380407 7.76591439,2.75 6.36268632,2.75 C4.95945825,2.75 4.32448643,3.54380407 4.32448643,5.48524986 C4.32448643,6.6289612 4.55450517,7.37621784 4.95481746,7.94173838 C4.95779816,7.9459492 5.7805043,8.83459789 5.8471464,9.23445046 C5.9090429,9.60582949 5.76811598,9.92868025 5.49891646,10.1978798 C5.02060281,10.6761934 4.48391001,10.9922458 3.57717748,11.4078316 C3.49050242,11.4475577 3.38779867,11.4941047 3.20451787,11.5771325 C1.90118851,12.1695549 1.53628655,12.4932583 1.53628655,13.1527995 C1.53628655,13.5670131 1.20050011,13.9027995 0.786286549,13.9027995 C0.372072987,13.9027995 0.0362865489,13.5670131 0.0362865489,13.1527995 C0.0362865489,11.6915101 0.780615571,11.0312182 2.58381345,10.2115828 C2.76981424,10.1273186 2.86892305,10.0824009 2.95219541,10.0442344 C3.52206486,9.78304419 3.89805291,9.57982182 4.18459152,9.35931822 C3.94871686,9.10299496 3.87975405,9.01921888 3.73051045,8.80838267 C3.14790971,7.98534354 2.82448643,6.93464569 2.82448643,5.48524986 C2.82448643,2.77976842 4.0481635,1.25 6.36268632,1.25 C8.67720914,1.25 9.90088621,2.77976842 9.90088621,5.48524986 C9.90088621,6.93464569 9.57746293,7.98534354 8.99486219,8.80838267 C8.84561859,9.01921888 8.77665578,9.10299496 8.54078112,9.35931822 C8.82731973,9.57982182 9.20330778,9.78304419 9.77317723,10.0442344 C9.85644959,10.0824009 9.9555584,10.1273186 10.1415592,10.2115828 C10.4624695,10.3574511 10.749843,10.4982727 11.0054525,10.6394606 Z"></path></g></svg>