<svg xmlns="http://www.w3.org/2000/svg" width="16" height="16" viewBox="0 0 16 16"><g fill="none" fill-rule="evenodd"><rect width="16" height="16"></rect><path fill="#6f6f87" fill-rule="nonzero" d="M1.9010878,8.68181818 C2.18274045,11.2296873 4.02429757,13.3074165 6.44956363,13.9388102 C5.41256551,12.3793546 4.7827914,10.5748037 4.62684517,8.68181818 L1.9010878,8.68181818 Z M1.9010878,7.31818182 L4.6250621,7.31818182 C4.77792939,5.43419059 5.40847865,3.62574263 6.4493465,2.06124637 C4.02418766,2.69270753 2.18273204,4.77038873 1.9010878,7.31818182 Z M14.0989122,7.31818182 C13.8172596,4.7703127 11.9757024,2.69258352 9.55043637,2.06118984 C10.5874345,3.62064541 11.2172086,5.42519627 11.3731548,7.31818182 L14.0989122,7.31818182 Z M14.0989122,8.68181818 L11.3749379,8.68181818 C11.2220706,10.5658094 10.5915214,12.3742574 9.5506535,13.9387536 C11.9758123,13.3072925 13.817268,11.2296113 14.0989122,8.68181818 Z M5.99189047,7.31818182 L10.0061876,7.31818182 C9.83491635,5.46828424 9.13841072,3.70584835 7.99998508,2.23916014 C6.85726879,3.71111558 6.15981669,5.47907519 5.99189047,7.31818182 Z M10.0081095,8.68181818 L5.99381241,8.68181818 C6.16508365,10.5317158 6.86158928,12.2941516 8.00001492,13.7608399 C9.14273121,12.2888844 9.84018331,10.5209248 10.0081095,8.68181818 Z M8,15.5 C3.85786438,15.5 0.5,12.1421356 0.5,8 C0.5,3.85786438 3.85786438,0.5 8,0.5 C12.1421356,0.5 15.5,3.85786438 15.5,8 C15.5,12.1421356 12.1421356,15.5 8,15.5 Z"></path></g></svg>