<svg xmlns="http://www.w3.org/2000/svg" width="16" height="16" viewBox="0 0 16 16"><g fill="none" fill-rule="evenodd"><rect width="16" height="16"></rect><path fill="#6f6f87" fill-rule="nonzero" d="M0.941176471,8.8817842e-16 L14.0500592,8.8817842e-16 C14.5698566,8.8817842e-16 14.9912356,0.421379059 14.9912356,0.941176471 L14.9912356,5.49336527 L-2.8688163e-13,5.49336527 L-2.8688163e-13,0.941176471 C-2.8688163e-13,0.421379059 0.421379059,8.8817842e-16 0.941176471,8.8817842e-16 Z M1.41176471,4.08160056 L13.5794709,4.08160056 L13.5794709,1.41176471 L1.41176471,1.41176471 L1.41176471,4.08160056 Z M0.00449601478,5.48966691 C0.00449601478,7.30666475 0.00449601478,10.0257954 0.00449601478,13.6470588 C0.00449601478,14.5567043 0.741909368,15.2941176 1.65155484,15.2941176 L6.90055486,15.2941176 L6.90055486,13.8823529 L1.65155484,13.8823529 C1.52160549,13.8823529 1.41626072,13.7770082 1.41626072,13.6470588 L1.41626072,5.48966691 M14.2144928,9.34403207 L15.1718427,9.02022255 L16,10.4545911 L15.2414079,11.1212577 C15.3368914,11.5739728 15.3368914,12.0416276 15.2414079,12.4943426 L16,13.1610093 L15.1718427,14.5953778 L14.2144928,14.2715683 C13.8749482,14.5779865 13.4708075,14.8140114 13.026087,14.9589389 L12.8281573,15.9485869 L11.1718427,15.9485869 L10.9730849,14.9581107 C10.5335502,14.8144734 10.128996,14.5803172 9.78550725,14.2707401 L8.82815735,14.5953778 L8,13.1610093 L8.75859213,12.4943426 C8.66310857,12.0416276 8.66310857,11.5739728 8.75859213,11.1212577 L8,10.4545911 L8.82815735,9.02022255 L9.78550725,9.34403207 C10.1250518,9.03761385 10.5291925,8.80158901 10.973913,8.65666147 L11.1718427,7.66701344 L12.8281573,7.66701344 L13.0269151,8.65748963 C13.4708075,8.80158901 13.8749482,9.03844201 14.2144928,9.34486023 L14.2144928,9.34403207 Z M12,13.4641149 C12.9147573,13.4641149 13.6563147,12.7225575 13.6563147,11.8078002 C13.6563147,10.8930428 12.9147573,10.1514855 12,10.1514855 C11.0852427,10.1514855 10.3436853,10.8930428 10.3436853,11.8078002 C10.3436853,12.7225575 11.0852427,13.4641149 12,13.4641149 Z"></path></g></svg>