<svg xmlns="http://www.w3.org/2000/svg" width="20" height="16" viewBox="0 0 20 16"><g fill="none" fill-rule="evenodd"><rect width="20" height="16"></rect><path fill="#6f6f87" fill-rule="nonzero" d="M0.0035790648,2 C0.0035790648,1.58578644 0.339365502,1.25 0.753579065,1.25 L19.2378822,1.25 C19.6520958,1.25 19.9878822,1.58578644 19.9878822,2 L19.9878822,14 C19.9878822,14.4142136 19.6520958,14.75 19.2378822,14.75 L0.753579065,14.75 C0.339365502,14.75 0.0035790648,14.4142136 0.0035790648,14 L0.0035790648,2 Z M1.50357906,2.75 L1.50357906,13.25 L18.4878822,13.25 L18.4878822,2.75 L1.50357906,2.75 Z M7.19007728,10.0851212 L7.19007728,10.9754846 L3.89096288,10.9754846 L3.89096288,10.0851212 L5.00391714,10.0851212 L5.00391714,7.16361631 C5.00391714,7.08941899 5.00524207,7.01456032 5.00789197,6.93903804 C5.01054188,6.86351577 5.01451667,6.78733216 5.01981648,6.71048494 L4.3599936,7.25901239 C4.30169571,7.30406076 4.24406115,7.33122188 4.18708821,7.34049654 C4.13011527,7.34977121 4.07645551,7.34977121 4.02610733,7.34049654 C3.97575914,7.33122188 3.93071145,7.31399776 3.89096288,7.28882367 C3.85121432,7.26364957 3.82206581,7.23781339 3.80351648,7.21131435 L3.41398249,6.69458559 L5.21855831,5.18017284 L6.23611649,5.18017284 L6.23611649,10.0851212 L7.19007728,10.0851212 Z M11.502775,9.86253038 C11.6352702,9.86253038 11.7399399,9.89896602 11.8167871,9.97183838 C11.8936343,10.0447108 11.9320574,10.1407683 11.9320574,10.260014 L11.9320574,10.9754846 L7.86182467,10.9754846 L7.86182467,10.578001 C7.86182467,10.5011537 7.87772385,10.4190079 7.9095227,10.3315611 C7.94132156,10.2441143 7.99696871,10.1646183 8.07646584,10.0930709 L9.74589722,8.41171501 C9.88899206,8.26862018 10.0135357,8.13215215 10.1195319,8.00230684 C10.225528,7.87246153 10.3129736,7.74460556 10.3818711,7.61873511 C10.4507686,7.49286465 10.502441,7.36699608 10.5368897,7.24112563 C10.5713385,7.11525517 10.5885626,6.98209948 10.5885626,6.84165455 C10.5885626,6.61111287 10.5335779,6.43423441 10.4236069,6.31101386 C10.3136358,6.18779331 10.1460319,6.12618395 9.92079003,6.12618395 C9.73794664,6.12618395 9.58359202,6.17454398 9.45772157,6.27126549 C9.33185111,6.367987 9.24506805,6.48789337 9.19736977,6.6309882 C9.14172178,6.77673294 9.0688505,6.873453 8.97875376,6.92115128 C8.88865701,6.96884956 8.76013858,6.97944901 8.5931946,6.95294997 L7.9413214,6.83767971 C7.98371987,6.54884014 8.0652032,6.297103 8.18577385,6.08246075 C8.3063445,5.8678185 8.45606185,5.68895264 8.63493039,5.54585781 C8.81379893,5.40276297 9.01850097,5.29610592 9.24904265,5.22588346 C9.47958432,5.155661 9.72734666,5.12055029 9.99233709,5.12055029 C10.2785268,5.12055029 10.5362261,5.16228566 10.7654428,5.24575764 C10.9946595,5.32922963 11.1900871,5.4451612 11.3517312,5.59355585 C11.5133754,5.74195049 11.6372566,5.91882895 11.7233784,6.12419654 C11.8095003,6.32956412 11.8525606,6.55546508 11.8525606,6.80190618 C11.8525606,7.01389853 11.8227497,7.20998851 11.7631268,7.390182 C11.703504,7.57037549 11.6220206,7.74195423 11.5186744,7.90492334 C11.4153281,8.06789246 11.2954217,8.2255594 11.1589516,8.3779289 C11.0224816,8.5302984 10.8774015,8.68465301 10.723707,8.84099737 L9.59087859,10.0016497 C9.73662333,9.95660129 9.88104095,9.92215305 10.0241358,9.89830391 C10.1672306,9.87445477 10.2997238,9.86253038 10.4216194,9.86253038 L11.502775,9.86253038 Z M12.5839306,6.83767971 C12.626329,6.54884014 12.7078124,6.297103 12.828383,6.08246075 C12.9489537,5.8678185 13.098671,5.68895264 13.2775396,5.54585781 C13.4564081,5.40276297 13.6611101,5.29610592 13.8916518,5.22588346 C14.1221935,5.155661 14.3699558,5.12055029 14.6349463,5.12055029 C14.9211359,5.12055029 15.1755229,5.16096072 15.3981149,5.24178281 C15.6207069,5.32260489 15.8088472,5.4319118 15.9625417,5.56970683 C16.1162361,5.70750185 16.2328302,5.86715619 16.3123273,6.04867464 C16.3918244,6.23019309 16.4315724,6.4216458 16.4315724,6.62303853 C16.4315724,6.80588193 16.4130234,6.9668612 16.3759247,7.10598118 C16.338826,7.24510116 16.2838414,7.36567 16.210969,7.46769131 C16.1380966,7.56971263 16.0480012,7.65583323 15.9406801,7.72605569 C15.833359,7.79627816 15.7108027,7.85523765 15.5730077,7.90293592 C16.2142846,8.12817779 16.5349182,8.56540545 16.5349182,9.21463201 C16.5349182,9.52202091 16.479271,9.78965723 16.367975,10.017549 C16.2566791,10.2454408 16.1076242,10.4349061 15.9208059,10.5859506 C15.7339877,10.7369952 15.5173612,10.8502769 15.2709201,10.9257992 C15.024479,11.0013214 14.7674422,11.039082 14.4998018,11.039082 C14.2242118,11.039082 13.9790993,11.009271 13.764457,10.9496482 C13.5498148,10.8900253 13.3590245,10.7972801 13.1920806,10.6714096 C13.0251366,10.5455392 12.8787316,10.3845599 12.7528611,10.188467 C12.6269907,9.99237406 12.5176838,9.75918598 12.4249371,9.48889573 L12.9734646,9.26630488 C13.1165594,9.21065689 13.2490526,9.19608264 13.3709482,9.22258168 C13.4928438,9.24908072 13.5802894,9.31002761 13.6332874,9.40542417 C13.7525331,9.62536623 13.8790642,9.78502057 14.0128843,9.88439198 C14.1467045,9.98376339 14.303709,10.0334484 14.4839025,10.0334484 C14.6216975,10.0334484 14.7416039,10.010262 14.8436252,9.96388871 C14.9456465,9.91751539 15.0304422,9.85789343 15.0980147,9.78502106 C15.1655873,9.71214869 15.2165972,9.62934043 15.2510459,9.53659377 C15.2854947,9.44384712 15.3027188,9.34977693 15.3027188,9.25438037 C15.3027188,9.12983487 15.2941068,9.01787809 15.2768824,8.91850668 C15.259658,8.81913527 15.211298,8.73367713 15.1318008,8.66212972 C15.0523037,8.5905823 14.9323973,8.53559761 14.7720781,8.497174 C14.6117589,8.45875039 14.3885078,8.43953887 14.1023182,8.43953887 L14.1023182,7.58892383 C14.3434595,7.58892383 14.5382245,7.57037478 14.6866191,7.53327612 C14.8350138,7.49617746 14.9496204,7.44516756 15.0304425,7.38024491 C15.1112646,7.31532225 15.1649243,7.23648878 15.1914234,7.14374213 C15.2179224,7.05099548 15.2311718,6.94897569 15.2311718,6.83767971 C15.2311718,6.60978794 15.1761871,6.43423441 15.066216,6.31101386 C14.956245,6.18779331 14.7886411,6.12618395 14.5633992,6.12618395 C14.3805558,6.12618395 14.2262012,6.17454398 14.1003307,6.27126549 C13.9744603,6.367987 13.8876772,6.48789337 13.8399789,6.6309882 C13.784331,6.77673294 13.7114597,6.873453 13.6213629,6.92115128 C13.5312662,6.96884956 13.4027477,6.97944901 13.2358038,6.95294997 L12.5839306,6.83767971 Z"></path></g></svg>