<svg xmlns="http://www.w3.org/2000/svg" width="16" height="16" viewBox="0 0 16 16"><g fill="none" fill-rule="evenodd"><rect width="16" height="16"></rect><path fill="#6f6f87" fill-rule="nonzero" d="M3.13605707,6.39280858 L3.13605707,4.74468052 C3.13605707,2.11824902 5.31708991,-0.00219957245 7.99713374,-0.00219957245 C10.6771775,-0.00219957245 12.8582104,2.11824903 12.8582104,4.74468052 L12.8582104,6.39280858 L13.7526411,6.39280858 C14.1668546,6.39280858 14.5026411,6.72859502 14.5026411,7.14280858 L14.5026411,15.1365688 C14.5026411,15.5507823 14.1668546,15.8865688 13.7526411,15.8865688 L2.2416264,15.8865688 C1.82741284,15.8865688 1.4916264,15.5507823 1.4916264,15.1365688 L1.4916264,7.14280858 C1.4916264,6.72859502 1.82741284,6.39280858 2.2416264,6.39280858 L3.13605707,6.39280858 Z M4.63605707,6.39280858 L11.3582104,6.39280858 L11.3582104,4.74468052 C11.3582104,2.95628019 9.85805979,1.49780043 7.99713374,1.49780043 C6.13620767,1.49780043 4.63605707,2.95628018 4.63605707,4.74468052 L4.63605707,6.39280858 Z M3.13605707,7.89280858 L2.9916264,7.89280858 L2.9916264,14.3865688 L13.0026411,14.3865688 L13.0026411,7.89280858 L12.8582104,7.89280858 L3.13605707,7.89280858 Z M7.99713374,12.6890647 C7.13347787,12.6890647 6.42491841,12.0001874 6.42491841,11.1396887 C6.42491841,10.2791899 7.13347787,9.59031266 7.99713374,9.59031266 C8.86078961,9.59031266 9.56934908,10.2791899 9.56934908,11.1396887 C9.56934908,12.0001874 8.86078961,12.6890647 7.99713374,12.6890647 Z"></path></g></svg>