<svg width="64" height="64" viewBox="0 0 64 64" fill="none" xmlns="http://www.w3.org/2000/svg">
<rect width="64" height="64" fill="white"/>
<path fill-rule="evenodd" clip-rule="evenodd" d="M26.6757 4.39066C27.9931 4.01327 29.3741 3.90792 30.7333 4.08065L30.7475 4.08245C37.7867 5.02411 44.253 8.45077 48.9423 13.7434C53.633 19.0375 56.2258 25.839 56.225 32.8891V38.3281H64V42.7776L53.6334 42.7776V45.0024C53.6335 46.9628 52.8447 48.8306 51.4602 50.2003C50.0776 51.568 48.2141 52.3293 46.2807 52.3362L46.273 52.3362H19.0418C18.574 52.3362 18.1371 52.52 17.8242 52.8284C17.5135 53.1347 17.3503 53.5371 17.3503 53.9434C17.3503 55.5697 16.6943 57.1167 15.5471 58.2475C14.4019 59.3763 12.8612 60 11.2669 60C9.67259 60 8.13188 59.3763 6.98669 58.2475C5.83945 57.1167 5.18344 55.5697 5.18344 53.9434V42.7776H4.7876C3.53693 42.7776 2.32586 42.2884 1.42372 41.3991C0.51954 40.5079 0 39.2859 0 37.9982V35.4436C0 34.156 0.51954 32.934 1.42372 32.0427C2.00608 31.4687 2.71716 31.0614 3.48453 30.8447C3.72629 26.2916 5.3447 21.9128 8.13421 18.3078C10.601 15.1198 13.8682 12.6859 17.572 11.244L23.028 6.31387L23.0689 6.28034C24.13 5.41022 25.3583 4.76806 26.6757 4.39066ZM9.57531 42.7776V53.9434C9.57531 54.3496 9.73846 54.752 10.0493 55.0584C10.3622 55.3668 10.7991 55.5505 11.2669 55.5505C11.7346 55.5505 12.1715 55.3668 12.4844 55.0584C12.7953 54.752 12.9584 54.3496 12.9584 53.9434C12.9584 52.3171 13.6143 50.7702 14.7616 49.6393C15.9068 48.5105 17.4475 47.8867 19.0418 47.8867H46.2686C47.0769 47.883 47.8391 47.5636 48.3919 47.0168C48.9433 46.4713 49.2416 45.7456 49.2416 45.0024V42.7776L9.57531 42.7776ZM51.8331 32.8891V38.3281H4.7876C4.66356 38.3281 4.55627 38.2789 4.48635 38.21C4.41847 38.1431 4.39186 38.0656 4.39186 37.9982V35.4436C4.39186 35.3762 4.41847 35.2988 4.48635 35.2318C4.55627 35.1629 4.66356 35.1138 4.7876 35.1138H32.9001V30.6643H7.89724C8.16439 27.1731 9.44391 23.8272 11.5906 21.0529C14.0115 17.9243 17.3968 15.7015 21.2102 14.7381C25.0237 13.7746 29.0461 14.126 32.6394 15.7361C36.2326 17.3462 39.1904 20.1226 41.0446 23.624L42.0827 25.5845L45.9528 23.481L44.9147 21.5206C42.5975 17.1447 38.9023 13.6772 34.4159 11.6669C31.6868 10.444 28.7597 9.80272 25.8138 9.75873L25.8695 9.70835C26.4556 9.23623 27.1359 8.88277 27.8707 8.67227C28.6192 8.45785 29.4056 8.39719 30.1801 8.4947C36.195 9.30116 41.6975 12.2275 45.6741 16.7156C49.651 21.2041 51.8338 26.951 51.8331 32.8891Z" fill="#1C1C1C"/>
</svg>
