<svg width="64" height="64" viewBox="0 0 64 64" fill="none" xmlns="http://www.w3.org/2000/svg">
<g clip-path="url(#clip0_1454_16445)">
<rect width="64" height="64" fill="white"/>
<path fill-rule="evenodd" clip-rule="evenodd" d="M38.4262 5.33266C39.8064 4.78994 41.3283 4.18208 42.969 3.39844L43.831 5.20316C42.1217 6.01952 40.5435 6.64916 39.1581 7.19394C39.057 7.23371 38.9571 7.27296 38.8583 7.31173C37.5891 7.81028 36.5212 8.22974 35.6325 8.67134C34.6751 9.14707 34.0268 9.60159 33.6141 10.1078C33.2268 10.5827 33 11.1605 33 12.0008C33 12.7601 33.2455 13.0857 33.5389 13.3066C33.9264 13.5983 34.4806 13.7702 35.28 14.0033C35.2989 14.0088 35.318 14.0144 35.3372 14.02C36.0382 14.2242 36.9546 14.4911 37.6751 15.0494C38.5037 15.6917 39 16.6452 39 18.0008C39 20.5162 37.6549 22.6493 35.811 23.82C33.9583 24.9963 31.5231 25.2384 29.4397 23.8291C27.8202 22.7336 26.0656 21.9915 24.3298 22.0868C22.6522 22.1789 20.7818 23.0667 18.9137 25.682C17.0868 28.2397 16.811 30.9446 17.2746 32.9646C17.5079 33.9811 17.92 34.7889 18.3771 35.3157C18.8424 35.8519 19.2692 36.012 19.5643 36.0014C20.1208 35.9816 20.7064 35.8303 21.3532 35.6223C21.508 35.5725 21.6724 35.5171 21.8424 35.4598C22.3256 35.2971 22.8535 35.1192 23.332 35.0124C23.9969 34.8638 24.8048 34.7883 25.5732 35.157C26.3648 35.5369 26.8934 36.2774 27.243 37.268C27.8493 38.9859 28.1816 39.6952 28.4671 40.0819C28.6825 40.3738 28.8571 40.4805 29.3845 40.8025C29.4573 40.8469 29.5368 40.8954 29.6241 40.9491C30.5423 41.5142 31.0192 42.3285 31.1744 43.2768C31.3185 44.1577 31.1828 45.1363 30.9785 46.1068C30.9268 46.3528 30.9538 46.9069 31.1477 47.7205C31.3317 48.4921 31.6348 49.3721 32.0106 50.2C32.3892 51.0341 32.8209 51.7697 33.244 52.2788C33.4553 52.533 33.6414 52.7026 33.7915 52.8024C33.9346 52.8977 34.0006 52.9007 34.0006 52.9008L34 52.9008C34.887 52.9008 35.5663 52.7203 36.0374 52.3304C36.4862 51.959 36.9132 51.2574 37.0019 49.8384C37.0599 48.9114 37.2817 48.1509 37.6422 47.5231C38.0034 46.894 38.4742 46.4501 38.9551 46.1166C39.4152 45.7975 39.9014 45.5697 40.2859 45.3896L40.3039 45.3812C40.7024 45.1945 40.9674 45.0668 41.1651 44.9263C41.177 44.8884 41.1976 44.7947 41.2001 44.6018C41.2036 44.3278 41.175 44.0389 41.1386 43.6729C41.1194 43.4795 41.0981 43.2645 41.0782 43.0188C40.9753 41.7449 40.955 39.9316 42.3929 38.4937C42.5519 38.3347 42.7182 38.1701 42.889 38.0011C43.9563 36.9448 45.1975 35.7165 45.9088 34.61C46.338 33.9424 46.4129 33.5557 46.3874 33.3954C46.3812 33.3566 46.3696 33.3185 46.3021 33.2593C46.2166 33.1844 46.0275 33.0684 45.6455 32.9679C43.7377 32.4658 42.5917 31.9582 41.9121 31.1868C41.5574 30.7842 41.375 30.3623 41.2496 29.9727C41.1915 29.7922 41.1421 29.6064 41.0978 29.4398L41.0932 29.4223C41.0457 29.244 41.0008 29.0759 40.9455 28.8991C40.8606 28.6272 40.7422 28.3587 40.6033 28.0437C40.5721 27.9729 40.5398 27.8997 40.5067 27.8237C40.3508 27.466 40.1421 26.9746 40.0926 26.4898C40.066 26.2282 40.0785 25.9172 40.2026 25.6013C40.3314 25.2736 40.5538 25.0083 40.8391 24.8111C41.3595 24.4512 42.074 24.3278 42.8667 24.3014L42.9144 24.2998L42.9144 24.3009C44.3971 24.3222 45.8686 24.0408 47.2388 23.4738C48.6081 22.9072 49.8475 22.0673 50.8812 21.0056C51.4793 20.3833 52.0096 19.7572 52.5171 19.1501C52.5673 19.09 52.6175 19.0299 52.6676 18.9699C53.1158 18.4329 53.5591 17.9017 53.9995 17.4375C54.9706 16.4139 56.121 15.5008 57.7 15.5008V17.5008C56.9789 17.5008 56.3293 17.8877 55.4504 18.8141C55.0566 19.2292 54.6556 19.7094 54.1984 20.2571C54.1501 20.3149 54.1012 20.3735 54.0516 20.4328C53.5409 21.0437 52.9718 21.7168 52.3208 22.3939L52.3167 22.3982C51.0928 23.656 49.6251 24.6508 48.0035 25.3218C46.3896 25.9897 44.657 26.3228 42.9107 26.301C42.5891 26.3128 42.3593 26.3434 42.1996 26.3802C42.1633 26.3885 42.1319 26.3969 42.1051 26.405C42.1395 26.5377 42.2125 26.7316 42.3402 27.0248C42.3643 27.0802 42.3904 27.1392 42.4179 27.2012C42.558 27.5179 42.7324 27.9119 42.8545 28.3025C42.9242 28.5256 42.9792 28.7325 43.0259 28.9081L43.0259 28.9082C43.0746 29.0911 43.112 29.2314 43.1535 29.3601C43.2312 29.6018 43.305 29.7424 43.4128 29.8648C43.6583 30.1434 44.2623 30.5358 46.1545 31.0337C47.2939 31.3336 48.1865 31.9742 48.3626 33.0812C48.5121 34.0209 48.0619 34.9592 47.5912 35.6916C46.748 37.0032 45.3161 38.4165 44.267 39.4521C44.1031 39.6139 43.9486 39.7664 43.8071 39.9079C43.045 40.67 42.9747 41.6567 43.0717 42.8578C43.0837 43.0059 43.0996 43.168 43.1162 43.3365C43.1585 43.767 43.205 44.2394 43.1999 44.6279C43.1928 45.1703 43.095 45.9796 42.4 46.5008C42.0182 46.7872 41.5643 46.9995 41.2005 47.1698C41.1843 47.1773 41.1682 47.1849 41.1524 47.1923C40.7458 47.3827 40.4026 47.5466 40.0949 47.76C39.8007 47.964 39.559 48.2013 39.3765 48.5191C39.1933 48.8382 39.0401 49.2902 38.998 49.9632C38.8867 51.7442 38.3138 53.0426 37.3125 53.8712C36.3337 54.6813 35.1129 54.9008 34 54.9008C33.0194 54.9008 32.2346 54.1933 31.7059 53.5572C31.1291 52.8631 30.6108 51.955 30.1894 51.0266C29.7652 50.092 29.4183 49.0908 29.2022 48.1842C28.9962 47.3197 28.8732 46.3988 29.0214 45.6948C29.2171 44.7653 29.2815 44.0939 29.2006 43.5998C29.1308 43.1731 28.9576 42.8874 28.5759 42.6525C28.5028 42.6075 28.4293 42.5633 28.3556 42.519C27.8436 42.2113 27.321 41.8971 26.8579 41.2697C26.3684 40.6064 25.9507 39.6157 25.357 37.9336C25.1066 37.2242 24.8477 37.0272 24.708 36.9602C24.5452 36.8821 24.2781 36.8503 23.768 36.9642C23.3993 37.0466 23.026 37.1724 22.5839 37.3213C22.3924 37.3858 22.188 37.4547 21.9655 37.5262C21.2811 37.7463 20.4792 37.97 19.6357 38.0002C18.5308 38.0396 17.5701 37.4372 16.8666 36.6265C16.1549 35.8064 15.617 34.683 15.3253 33.412C14.7389 30.857 15.1132 27.5619 17.2862 24.5196C19.4181 21.5349 21.7978 20.2227 24.2202 20.0898C26.5844 19.9601 28.7798 20.9681 30.5603 22.1725C31.8769 23.0632 33.4417 22.9553 34.739 22.1316C36.0451 21.3023 37 19.7854 37 18.0008C37 17.2064 36.7463 16.8599 36.4499 16.6303C36.0651 16.3321 35.5122 16.1544 34.72 15.9233C34.6894 15.9144 34.6584 15.9054 34.6269 15.8962C33.9372 15.6958 33.0414 15.4354 32.3361 14.9044C31.5045 14.2784 31 13.3415 31 12.0008C31 10.7411 31.3607 9.70637 32.064 8.84384C32.7419 8.01251 33.6874 7.40453 34.7425 6.88026C35.7133 6.39786 36.8626 5.94664 38.1028 5.45969C38.21 5.41763 38.3178 5.3753 38.4262 5.33266ZM41.1566 44.9478C41.1565 44.9476 41.1572 44.9459 41.159 44.943Z" fill="#1C1C1C"/>
<path fill-rule="evenodd" clip-rule="evenodd" d="M32 60C47.464 60 60 47.464 60 32C60 16.536 47.464 4 32 4C16.536 4 4 16.536 4 32C4 47.464 16.536 60 32 60ZM32 64C49.6731 64 64 49.6731 64 32C64 14.3269 49.6731 0 32 0C14.3269 0 0 14.3269 0 32C0 49.6731 14.3269 64 32 64Z" fill="#1C1C1C"/>
</g>
<defs>
<clipPath id="clip0_1454_16445">
<rect width="64" height="64" fill="white"/>
</clipPath>
</defs>
</svg>
