<svg width="64" height="64" viewBox="0 0 64 64" fill="none" xmlns="http://www.w3.org/2000/svg">
<rect width="64" height="64" fill="white"/>
<path fill-rule="evenodd" clip-rule="evenodd" d="M22 3C16.1652 3 10.5695 5.31785 6.44365 9.44365C2.31785 13.5695 0 19.1652 0 25C0 30.8348 2.31785 36.4305 6.44365 40.5564C10.5695 44.6821 16.1652 47 22 47V59.2701L35.847 47.7309L32.5616 45.2619L26 50.7299V43H22C17.2261 43 12.6477 41.1036 9.27208 37.7279C5.89642 34.3523 4 29.7739 4 25C4 20.2261 5.89642 15.6477 9.27208 12.2721C12.6477 8.89642 17.2261 7 22 7H42C46.7739 7 51.3523 8.89642 54.7279 12.2721C58.1036 15.6477 60 20.2261 60 25C60 29.7739 58.1036 34.3523 54.7279 37.7279C54.3605 38.0954 53.9788 38.4453 53.5841 38.7771L53.6 38.8276H59.1114C62.2599 34.9316 64 30.0555 64 25C64 19.1652 61.6821 13.5695 57.5564 9.44365C53.4305 5.31785 47.8348 3 42 3H22ZM49.7962 51.2213L48 49.8785L46.2038 51.2213L43.8389 52.9892L44.778 50.0466L45.4294 48.0054L43.71 46.727L41.0627 44.7586H44.2667H46.4618L47.126 42.6665L48 39.9137L48.874 42.6665L49.5382 44.7586H51.7333H54.9373L52.29 46.727L50.5706 48.0054L51.222 50.0466L52.1611 52.9892L49.7962 51.2213ZM38.1333 61L42.2691 57.9083L48 53.6241L53.731 57.9083L57.8667 61L56.2968 56.0808L54.08 49.1345L59.9652 44.7586L64 41.7586H58.9721H51.7333L49.5738 34.9569L48 30L46.4262 34.9569L44.2667 41.7586H37.0279H32L36.0348 44.7586L41.92 49.1345L39.7032 56.0808L38.1333 61Z" fill="#1C1C1C"/>
</svg>
