<svg width="58" height="62" viewBox="0 0 58 62" fill="none" xmlns="http://www.w3.org/2000/svg">
<path fill-rule="evenodd" clip-rule="evenodd" d="M30.8944 0V4.25401C32.2665 4.60831 33.5322 5.32406 34.5513 6.34315C36.0516 7.84344 36.8944 9.87827 36.8944 12V24H42.8944V28H40.8944V58H46.8944V62H10.8944V58H16.8944V28H14.8944V24H20.8944V12C20.8944 9.87827 21.7373 7.84344 23.2376 6.34315C24.2566 5.32406 25.5224 4.60831 26.8944 4.25401V0H30.8944ZM28.8944 8C27.8335 8 26.8161 8.42143 26.066 9.17157C25.3158 9.92172 24.8944 10.9391 24.8944 12H32.8944C32.8944 10.9391 32.473 9.92172 31.7228 9.17157C30.9727 8.42143 29.9553 8 28.8944 8ZM24.8944 16V24H32.8944V16H24.8944ZM20.8944 28V58H36.8944V28H20.8944Z" fill="#202020"/>
<path d="M13.7889 12.2109L1.78885 6.21094L0 9.78865L12 15.7886L13.7889 12.2109Z" fill="#202020"/>
<path d="M45.7889 15.7886L57.7889 9.78865L56 6.21094L44 12.2109L45.7889 15.7886Z" fill="#202020"/>
<path d="M12 18.2109L0 24.2109L1.78885 27.7886L13.7889 21.7886L12 18.2109Z" fill="#202020"/>
<path d="M44 21.7886L56 27.7886L57.7889 24.2109L45.7889 18.2109L44 21.7886Z" fill="#202020"/>
</svg>
