<svg xmlns="http://www.w3.org/2000/svg" width="16" height="16" viewBox="0 0 16 16" class="trustpilot-icon support__icon"><g fill="none" fill-rule="evenodd"><path d="M0 0h16v16H0z"></path><path fill="#000" fill-rule="nonzero" d="M15.335 14.62c.09 0 .16-.069.16-.15v-3.934c0-.081-.07-.15-.16-.15h-4.909c-.09 0-.16.069-.16.15v3.934c0 .081.071.15.16.15zm0 .5h-4.909a.655.655 0 0 1-.66-.65v-3.934c0-.36.297-.65.66-.65h4.91c.362 0 .658.29.658.65v3.934c0 .36-.296.65-.659.65m.119-5.047a.25.25 0 0 1 .308.394L13.035 12.6a.25.25 0 0 1-.308 0l-2.728-2.133a.25.25 0 1 1 .308-.394l2.574 2.013zM9.4 8.665a.25.25 0 0 1-.158.475l-.77-.256a28 28 0 0 1-.81-.286l-.085-.031a.25.25 0 0 1-.161-.234V6.666a.25.25 0 0 1 .154-.23 1.2 1.2 0 0 0 .403-.334c.275-.332.443-.8.443-1.436a.25.25 0 0 1 .25-.25c.188 0 .188-.88 0-.88a.25.25 0 0 1-.25-.25c0-.098.219-.654.206-.618.155-.438.217-.822.155-1.178l-.02-.097c-.253-1.017-3.596-1.017-3.849 0a.25.25 0 0 1-.292.185c-.321-.064-.481-.017-.556.1-.074.116-.093.328-.053.613.02.146.055.303.102.482-.032-.122.14.48.14.56a.25.25 0 0 1-.25.25c-.189 0-.189.833 0 .833a.25.25 0 0 1 .25.25c0 .637.167 1.104.442 1.436.16.192.313.296.403.333a.25.25 0 0 1 .155.231v1.667a.25.25 0 0 1-.161.234c-.265.1-.549.2-.888.316-.162.054-1.091.361-1.342.448-1.244.427-1.846.752-1.955 1.08a5.6 5.6 0 0 0-.204.978 14 14 0 0 0-.11 1.36h7.743a.25.25 0 1 1 0 .5h-8a.25.25 0 0 1-.25-.252c.001-.106.007-.289.019-.524.02-.391.053-.783.102-1.15.056-.42.13-.78.225-1.069.183-.55.846-.908 2.267-1.396.255-.088 1.185-.395 1.345-.45.266-.089.496-.17.709-.248V6.817a1.9 1.9 0 0 1-.443-.396c-.32-.385-.52-.903-.552-1.563-.511-.267-.528-1.364-.051-1.686l-.077-.27a5 5 0 0 1-.114-.542c-.055-.392-.027-.711.127-.951.171-.269.467-.387.867-.352.69-1.303 4.376-1.232 4.736.216q.016.064.027.13c.08.458.005.92-.175 1.432-.025.069-.075.2-.116.303.46.344.437 1.448-.067 1.718-.032.661-.233 1.18-.553 1.565a1.9 1.9 0 0 1-.442.396V8.16c.218.08.45.161.716.251l.77.256z"></path></g></svg>