<svg xmlns="http://www.w3.org/2000/svg" width="24" height="24" viewBox="0 0 24 24" class="trustpilot-icon card__header__icon"><path fill="#1B1B21" d="M23 17.5a5.5 5.5 0 1 0-11 0 5.5 5.5 0 0 0 11 0m1 0a6.5 6.5 0 1 1-13.002-.002A6.5 6.5 0 0 1 24 17.5m-3.87-1.837.74.674-3.5 3.836a.5.5 0 0 1-.724.017l-2.5-2.5.708-.708 2.13 2.13zM19 4.5C19 2.685 14.997 1 10 1S1 2.685 1 4.5 5.003 8 10 8s9-1.685 9-3.5m1 0C20 7.103 15.495 9 10 9S0 7.103 0 4.5 4.505 0 10 0s10 1.897 10 4.5M10 12v1C4.505 13 0 11.103 0 8.5h1c0 1.815 4.003 3.5 9 3.5m-1.467 4.45-.066.998C3.647 17.126 0 15.345 0 13h1c0 1.602 3.189 3.16 7.533 3.45m.489 4.528-.044.999C3.926 21.755 0 19.931 0 17.5v-13h1v13c0 1.673 3.453 3.277 8.022 3.478M19 4.5h1V9h-1z"></path></svg>