<svg xmlns="http://www.w3.org/2000/svg" width="24" height="21" viewBox="0 0 24 21" class="trustpilot-icon card__header__icon"><path fill="#1B1B21" d="M19.7 12.562a.5.5 0 1 1 .802.598l-3.1 4.147a.5.5 0 0 1-.752.055l-2.002-1.988a.5.5 0 0 1 .705-.71l1.593 1.583zm-10.2 1.45a.5.5 0 1 1 0 1H2c-1.104 0-2-.897-2-2v-11a2 2 0 0 1 2-2h18a2 2 0 0 1 2 2v4.5a.5.5 0 1 1-1 0v-4.5a1 1 0 0 0-1-1H2a1 1 0 0 0-1 1v11c0 .551.449 1 1 1zM20.734.574a.5.5 0 0 1 .625.78L11.312 9.402a.5.5 0 0 1-.625 0L.625 1.338a.5.5 0 1 1 .626-.78L11 8.37zM22.947 14.5a5.5 5.5 0 1 0-11 0 5.5 5.5 0 0 0 11 0m1 0a6.5 6.5 0 1 1-12.999 0 6.5 6.5 0 0 1 13 0"></path></svg>