<svg xmlns="http://www.w3.org/2000/svg" width="24" height="23" viewBox="0 0 24 23" class="trustpilot-icon card__header__icon"><path fill="#1B1B21" d="M.513 5.582a.5.5 0 1 1 0-1h20a.5.5 0 1 1 0 1zm4-2.763a1 1 0 1 1-2 0 1 1 0 0 1 2 0m3 0a1 1 0 1 1-2 0 1 1 0 0 1 2 0m3 0a1 1 0 1 1-2 0 1 1 0 0 1 2 0M9.513 16a.5.5 0 1 1 0 1h-7a2.5 2.5 0 0 1-2.5-2.5v-12a2.5 2.5 0 0 1 2.5-2.5h16a2.5 2.5 0 0 1 2.5 2.5v7a.5.5 0 1 1-1 0v-7a1.5 1.5 0 0 0-1.5-1.5h-16a1.5 1.5 0 0 0-1.5 1.5v12a1.5 1.5 0 0 0 1.5 1.5zm6.5-3.574V11.5a.5.5 0 0 1 .5-.5h3a.5.5 0 0 1 .5.5v.927c.34.152.664.338.957.552l.791-.46a.5.5 0 0 1 .685.182l1.5 2.598a.5.5 0 0 1-.183.683l-.797.46a4.8 4.8 0 0 1 0 1.116l.798.46a.5.5 0 0 1 .184.683l-1.5 2.598a.5.5 0 0 1-.683.182l-.794-.46c-.293.215-.618.401-.958.553v.926a.5.5 0 0 1-.5.5h-3a.5.5 0 0 1-.5-.5v-.925a5.3 5.3 0 0 1-.972-.555l-.805.462a.5.5 0 0 1-.682-.183l-1.5-2.598a.5.5 0 0 1 .182-.683l.796-.46a4.8 4.8 0 0 1 0-1.116l-.794-.46a.5.5 0 0 1-.182-.683l1.5-2.598a.5.5 0 0 1 .683-.184l.803.463c.293-.213.623-.4.97-.554m1 .336a.5.5 0 0 1-.325.468c-.48.18-.933.435-1.278.731a.5.5 0 0 1-.575.054l-.662-.382-1.002 1.733.657.381a.5.5 0 0 1 .242.521c-.047.26-.071.5-.071.732 0 .235.023.475.07.732a.5.5 0 0 1-.242.522l-.657.38 1 1.733.666-.382a.5.5 0 0 1 .575.055 4.3 4.3 0 0 0 1.276.73.5.5 0 0 1 .326.469v.76h2v-.76a.5.5 0 0 1 .325-.469c.468-.174.91-.428 1.264-.73a.5.5 0 0 1 .576-.054l.655.38.999-1.732-.66-.38a.5.5 0 0 1-.242-.526 3.9 3.9 0 0 0 0-1.456.5.5 0 0 1 .24-.525l.66-.381-1-1.73-.65.378a.5.5 0 0 1-.577-.052 4.3 4.3 0 0 0-1.265-.732.5.5 0 0 1-.325-.468V12h-2zm.986 5.738a1.5 1.5 0 1 0-.001-3.001 1.5 1.5 0 0 0 .001 3.001m0 1A2.5 2.5 0 1 1 18 14.499 2.5 2.5 0 0 1 18 19.5"></path></svg>