<svg xmlns="http://www.w3.org/2000/svg" width="24" height="24" viewBox="0 0 24 24" class="trustpilot-icon card__header__icon"><path fill="#1B1B21" d="M1 21h9.5v1H.5a.5.5 0 0 1-.5-.5V.5A.5.5 0 0 1 .5 0h11a.5.5 0 0 1 .354.147l5 5.002a.5.5 0 0 1 .146.353V9.5h-1V5.709L11.293 1H1zM12 5h4.5v1h-5a.5.5 0 0 1-.5-.5v-5h1zm11 12.5a5.5 5.5 0 1 0-11.002.002A5.5 5.5 0 0 0 23 17.5m1 0a6.5 6.5 0 1 1-13 0 6.5 6.5 0 0 1 13 0m-7-2.729h1v5.454h-1zm-1.328 2.538-.707-.707 2.181-2.182a.5.5 0 0 1 .707 0l2.182 2.182-.707.707L17.5 15.48z"></path></svg>