<svg xmlns="http://www.w3.org/2000/svg" width="25" height="20" viewBox="0 0 25 20" class="trustpilot-icon card__header__icon"><path fill="#1B1B21" d="M23.013 17.493v-14a1.5 1.5 0 0 0-1.5-1.5h-19a1.5 1.5 0 0 0-1.5 1.5v14a1.5 1.5 0 0 0 1.5 1.5h19a1.5 1.5 0 0 0 1.5-1.5m1 0a2.5 2.5 0 0 1-2.5 2.5h-19a2.5 2.5 0 0 1-2.5-2.5v-14a2.5 2.5 0 0 1 2.5-2.5h19a2.5 2.5 0 0 1 2.5 2.5zm-23.5-10.5a.5.5 0 0 1 0-1h23a.5.5 0 1 1 0 1zm4.5-3a1 1 0 1 1-2 0 1 1 0 0 1 2 0m3 0a1 1 0 1 1-2 0 1 1 0 0 1 2 0m3 0a1 1 0 1 1-2 0 1 1 0 0 1 2 0M8.78 14.083a.5.5 0 0 1-.514.857l-2.5-1.5a.5.5 0 0 1 0-.857l2.5-1.5a.5.5 0 0 1 .514.857l-1.785 1.072zm6.504-2.143a.5.5 0 0 1 .515-.857l2.5 1.5a.5.5 0 0 1 0 .857l-2.5 1.5a.5.5 0 0 1-.515-.857l1.786-1.071zm-3.405 4.175a.5.5 0 1 1-.973-.23l1.354-5.709a.5.5 0 0 1 .973.23z"></path></svg>